<svg width="154" height="30" viewBox="0 0 154 30" fill="none" xmlns="http://www.w3.org/2000/svg">
<path d="M13.1461 7.20282V12.59C13.1467 12.6523 13.1339 12.7141 13.1084 12.771C13.0829 12.8279 13.0454 12.8786 12.9985 12.9196C12.9516 12.9607 12.8963 12.9911 12.8365 13.0088C12.7768 13.0264 12.7139 13.0309 12.6522 13.022C12.1552 12.9453 11.653 12.9082 11.1502 12.9111C9.73416 12.9111 8.57589 13.3686 7.67539 14.2835C6.77489 15.1984 6.32464 16.613 6.32464 18.5273V27.1228C6.32464 27.2374 6.27912 27.3473 6.1981 27.4283C6.11709 27.5093 6.0072 27.5548 5.89263 27.5548H0.432011C0.317434 27.5548 0.20755 27.5093 0.126533 27.4283C0.045515 27.3473 0 27.2374 0 27.1228V7.29786C0 7.18329 0.045515 7.0734 0.126533 6.99239C0.20755 6.91137 0.317434 6.86585 0.432011 6.86585H5.68526C5.79984 6.86585 5.90972 6.91137 5.99074 6.99239C6.07176 7.0734 6.11727 7.18329 6.11727 7.29786V8.21373C6.11714 8.30135 6.14366 8.38693 6.19331 8.45913C6.24295 8.53133 6.31337 8.58673 6.39523 8.61797C6.47709 8.64922 6.56652 8.65483 6.65164 8.63407C6.73677 8.61331 6.81357 8.56716 6.87185 8.50173C7.2976 8.02096 7.82026 7.63571 8.40549 7.3713C9.36765 6.91248 10.4184 6.66921 11.4843 6.65849C11.9299 6.65433 12.3748 6.69583 12.812 6.78233C12.907 6.80443 12.9917 6.85801 13.0523 6.93435C13.113 7.0107 13.146 7.10531 13.1461 7.20282Z" fill="#13100D"/>
<path d="M30.042 20.2005L34.5249 21.472C34.5804 21.4884 34.6321 21.5158 34.6769 21.5525C34.7217 21.5893 34.7586 21.6347 34.7854 21.686C34.8123 21.7373 34.8286 21.7935 34.8333 21.8513C34.838 21.909 34.8311 21.9671 34.8129 22.0221C34.2411 23.7504 33.1359 25.2528 31.6563 26.3134C29.9916 27.547 27.9117 28.1643 25.4166 28.1653C22.4214 28.1653 19.8773 27.1669 17.7844 25.17C15.6916 23.1732 14.6476 20.4971 14.6524 17.1418C14.6524 13.9248 15.6714 11.3039 17.7096 9.27922C19.7477 7.25453 22.1674 6.24219 24.9688 6.24219C28.1858 6.24219 30.7164 7.17821 32.5606 9.05026C34.4049 10.9223 35.327 13.522 35.327 16.8495C35.327 17.5522 35.3082 18.075 35.2722 18.4206C35.2605 18.5267 35.2098 18.6248 35.1301 18.6958C35.0503 18.7668 34.947 18.8057 34.8402 18.8051H21.288C21.2246 18.8041 21.1617 18.8172 21.1038 18.8434C21.046 18.8695 20.9946 18.9081 20.9533 18.9563C20.9121 19.0046 20.882 19.0614 20.8652 19.1226C20.8484 19.1838 20.8452 19.248 20.856 19.3105C21.0198 20.2408 21.5207 21.078 22.263 21.6621C23.171 22.4222 24.3234 22.8283 25.5074 22.8055C27.4994 22.8055 28.8396 22.0221 29.5279 20.4553C29.5676 20.3573 29.6418 20.2772 29.7365 20.2302C29.8313 20.1832 29.94 20.1727 30.042 20.2005ZM21.4421 14.7283H28.7229C28.7869 14.7294 28.8502 14.7162 28.9084 14.6898C28.9666 14.6634 29.0183 14.6244 29.0596 14.5757C29.1009 14.5269 29.1309 14.4696 29.1474 14.4078C29.1639 14.3461 29.1665 14.2814 29.155 14.2185C29.0114 13.4809 28.6491 12.8035 28.1153 12.2745C27.4356 11.5814 26.4165 11.2348 25.0581 11.2348C23.8369 11.2348 22.8663 11.5953 22.1463 12.3163C21.6069 12.8294 21.2202 13.4818 21.0288 14.2013C21.0147 14.2638 21.0147 14.3287 21.0288 14.3913C21.0429 14.4539 21.0707 14.5125 21.1103 14.563C21.1499 14.6134 21.2002 14.6544 21.2576 14.683C21.315 14.7116 21.378 14.7271 21.4421 14.7283Z" fill="#13100D"/>
<path d="M43.1335 15.6864V27.1102C43.1335 27.2248 43.088 27.3347 43.0069 27.4157C42.9259 27.4967 42.816 27.5422 42.7015 27.5422H37.2408C37.1263 27.5422 37.0164 27.4967 36.9354 27.4157C36.8544 27.3347 36.8088 27.2248 36.8088 27.1102V7.2982C36.8088 7.18362 36.8544 7.07374 36.9354 6.99272C37.0164 6.9117 37.1263 6.86619 37.2408 6.86619H42.4941C42.6087 6.86619 42.7186 6.9117 42.7996 6.99272C42.8806 7.07374 42.9261 7.18362 42.9261 7.2982V7.96781C42.927 8.05266 42.9529 8.13536 43.0005 8.20559C43.0481 8.27582 43.1154 8.33048 43.1939 8.36273C43.2724 8.39498 43.3586 8.40341 43.4419 8.38696C43.5251 8.37051 43.6017 8.32991 43.662 8.27022C44.1525 7.77947 44.7277 7.38138 45.3598 7.09515C46.4051 6.59404 47.5486 6.33139 48.7079 6.32617C51.1761 6.32617 53.0481 7.09419 54.324 8.63023C55.5999 10.1663 56.2378 12.1425 56.2378 14.5589V27.1059C56.2378 27.2205 56.1923 27.3304 56.1113 27.4114C56.0302 27.4924 55.9204 27.5379 55.8058 27.5379H50.3437C50.2292 27.5379 50.1193 27.4924 50.0383 27.4114C49.9572 27.3304 49.9117 27.2205 49.9117 27.1059V15.6446C49.9117 14.5627 49.6276 13.6958 49.0592 13.0439C48.4909 12.3921 47.6518 12.0662 46.542 12.0662C45.5167 12.0662 44.6916 12.406 44.0666 13.0857C43.4416 13.7654 43.1306 14.6323 43.1335 15.6864Z" fill="#13100D"/>
<path d="M67.5477 20.1371C67.5477 21.5772 68.3104 22.2972 69.8359 22.2972C70.2222 22.2941 70.6076 22.2584 70.9879 22.1906C71.0501 22.1793 71.114 22.1817 71.1751 22.1977C71.2362 22.2137 71.2931 22.2429 71.3417 22.2833C71.3903 22.3236 71.4295 22.3742 71.4564 22.4313C71.4834 22.4885 71.4975 22.5508 71.4977 22.614V27.0508C71.498 27.1364 71.4728 27.2201 71.4253 27.2914C71.3779 27.3627 71.3104 27.4183 71.2313 27.4511C70.4777 27.7573 69.4696 27.9114 68.2072 27.9133C66.0712 27.9133 64.3863 27.3167 63.1527 26.1234C61.9191 24.9301 61.3046 23.3091 61.3094 21.2604V12.8304C61.3094 12.7158 61.2639 12.6059 61.1829 12.5249C61.1019 12.4439 60.992 12.3984 60.8774 12.3984H58.078C57.9634 12.3984 57.8535 12.3529 57.7725 12.2719C57.6915 12.1908 57.646 12.081 57.646 11.9664V7.29779C57.646 7.18321 57.6915 7.07333 57.7725 6.99231C57.8535 6.91129 57.9634 6.86578 58.078 6.86578H60.8141C60.9286 6.86578 61.0385 6.82026 61.1196 6.73925C61.2006 6.65823 61.2461 6.54835 61.2461 6.43377V1.26404C61.2461 1.14947 61.2916 1.03958 61.3726 0.958564C61.4536 0.877546 61.5635 0.832031 61.6781 0.832031H67.1171C67.2317 0.832031 67.3416 0.877546 67.4226 0.958564C67.5036 1.03958 67.5491 1.14947 67.5491 1.26404L67.5477 20.1371Z" fill="#13100D"/>
<path d="M96.3485 13.5628C96.4578 13.5296 96.5494 13.4544 96.6034 13.3537C96.6573 13.253 96.6693 13.1351 96.6365 13.0257C95.375 8.83231 91.5186 6.13944 86.8097 6.24313C79.6671 6.16392 74.8502 12.4439 76.0771 19.3158C76.0885 19.3757 76.1125 19.4325 76.1475 19.4825C76.1824 19.5326 76.2276 19.5746 76.28 19.6059C76.3323 19.6372 76.3907 19.657 76.4513 19.6641C76.5119 19.6712 76.5733 19.6653 76.6315 19.647C77.9981 19.215 80.0487 18.577 81.8963 18.001C81.9868 17.972 82.0652 17.9139 82.1193 17.8358C82.1735 17.7577 82.2004 17.6639 82.1958 17.569C82.0057 14.5449 83.8461 12.0465 86.935 12.0623C88.9035 12.0249 90.3335 13.0804 90.9671 14.7523C91.0044 14.8562 91.0802 14.9419 91.1787 14.9917C91.2773 15.0415 91.3912 15.0517 91.497 15.0201L96.3485 13.5628Z" fill="#13100D"/>
<path d="M114.229 26.2356C114.222 26.1502 114.19 26.0688 114.136 26.0019C114.082 25.9349 114.01 25.8855 113.928 25.8599C113.846 25.8342 113.758 25.8335 113.676 25.8579C113.594 25.8822 113.521 25.9305 113.466 25.9966C113.05 26.4982 112.549 26.9223 111.986 27.2494C110.957 27.8443 109.784 28.1466 108.596 28.1235C105.573 28.1235 103.105 27.0905 101.191 25.0246C99.2779 22.9586 98.3203 20.331 98.3184 17.1418C98.3184 14.0083 99.2472 11.4081 101.105 9.34115C102.962 7.27421 105.389 6.24123 108.386 6.24219C110.018 6.24219 111.307 6.56812 112.254 7.21997C112.663 7.49657 113.042 7.81405 113.387 8.16752C113.447 8.22793 113.523 8.26931 113.607 8.28647C113.69 8.30363 113.776 8.2958 113.855 8.26396C113.934 8.23213 114.002 8.1777 114.05 8.10751C114.098 8.03733 114.124 7.9545 114.126 7.86943V7.29341C114.126 7.17884 114.171 7.06895 114.252 6.98794C114.333 6.90692 114.443 6.8614 114.558 6.8614H119.812C119.927 6.8614 120.037 6.90692 120.118 6.98794C120.199 7.06895 120.244 7.17884 120.244 7.29341V23.8394C120.244 24.9281 120.287 26.0067 120.371 27.0752C120.376 27.1348 120.368 27.1947 120.349 27.2511C120.329 27.3076 120.298 27.3594 120.257 27.4033C120.217 27.4471 120.168 27.4821 120.113 27.5059C120.058 27.5297 119.999 27.5419 119.939 27.5418H114.735C114.626 27.5422 114.522 27.5018 114.442 27.4287C114.362 27.3556 114.312 27.2552 114.303 27.1472C114.271 26.7944 114.248 26.4934 114.229 26.2356ZM104.686 17.1836C104.686 18.8473 105.137 20.1784 106.038 21.1768C106.464 21.6467 106.983 22.0225 107.563 22.2803C108.142 22.5382 108.769 22.6723 109.403 22.6742C110.037 22.6761 110.665 22.5457 111.245 22.2914C111.826 22.037 112.348 21.6643 112.776 21.197C113.678 20.2129 114.129 18.8751 114.129 17.1836C114.129 15.4642 113.685 14.1259 112.798 13.1688C111.911 12.2116 110.788 11.7316 109.428 11.7287C108.014 11.7287 106.87 12.2001 105.997 13.1428C105.123 14.0856 104.686 15.4325 104.686 17.1836Z" fill="#F7A70A"/>
<path d="M135.015 7.20293V12.5901C135.016 12.6526 135.003 12.7145 134.977 12.7715C134.952 12.8285 134.914 12.8793 134.867 12.9204C134.82 12.9614 134.764 12.9918 134.704 13.0094C134.644 13.0269 134.581 13.0313 134.52 13.0221C134.023 12.9454 133.52 12.9083 133.018 12.9112C131.603 12.9112 130.446 13.3687 129.544 14.2836C128.643 15.1985 128.192 16.6131 128.192 18.5274V27.1229C128.192 27.2375 128.147 27.3474 128.066 27.4284C127.984 27.5094 127.875 27.555 127.76 27.555H122.298C122.183 27.555 122.074 27.5094 121.992 27.4284C121.911 27.3474 121.866 27.2375 121.866 27.1229V7.29797C121.866 7.18339 121.911 7.07351 121.992 6.99249C122.074 6.91148 122.183 6.86596 122.298 6.86596H127.551C127.666 6.86596 127.776 6.91148 127.857 6.99249C127.938 7.07351 127.983 7.18339 127.983 7.29797V8.21383C127.983 8.30113 128.01 8.38632 128.06 8.45818C128.109 8.53004 128.179 8.58519 128.261 8.61637C128.342 8.64756 128.432 8.6533 128.516 8.63286C128.601 8.61241 128.678 8.56673 128.736 8.50184C129.162 8.02139 129.685 7.6362 130.27 7.37141C131.233 6.91475 132.283 6.67347 133.349 6.66436C133.794 6.66013 134.239 6.70162 134.677 6.7882C134.771 6.80923 134.856 6.86159 134.918 6.93684C134.979 7.01208 135.013 7.10582 135.015 7.20293Z" fill="#F7A70A"/>
<path d="M136.842 21.603L141.363 20.7981C141.472 20.7792 141.585 20.8034 141.677 20.8657C141.77 20.9279 141.834 21.0234 141.858 21.1322C141.973 21.7264 142.266 22.2715 142.699 22.6946C143.239 23.2361 144.023 23.5063 145.049 23.5053C145.826 23.5053 146.422 23.3321 146.838 22.9855C147.033 22.8367 147.191 22.6447 147.299 22.4246C147.407 22.2044 147.463 21.9621 147.461 21.7168C147.461 20.8864 146.782 20.3181 145.423 20.0118L143.052 19.4704C140.94 19.0278 139.387 18.2444 138.393 17.1202C137.404 16.0204 136.868 14.586 136.896 13.1068C136.896 11.1935 137.651 9.57107 139.162 8.23952C140.673 6.90796 142.566 6.24219 144.84 6.24219C147.528 6.24219 149.544 6.88684 150.888 8.17616C152.11 9.34835 152.834 10.6165 153.061 11.9807C153.079 12.0923 153.052 12.2063 152.987 12.2983C152.921 12.3904 152.823 12.4531 152.712 12.4732L148.302 13.2782C148.194 13.2974 148.082 13.2746 147.99 13.2144C147.898 13.1542 147.833 13.0611 147.807 12.9542C147.691 12.4109 147.418 11.9139 147.02 11.5257C146.535 11.0543 145.834 10.8186 144.919 10.8186C144.351 10.8041 143.793 10.9794 143.335 11.3169C143.127 11.4615 142.957 11.6555 142.84 11.8816C142.724 12.1076 142.666 12.3588 142.67 12.6129C142.67 13.4452 143.211 13.9584 144.293 14.1523L147.038 14.6923C149.119 15.1051 150.703 15.8923 151.788 17.054C152.847 18.1617 153.429 19.6403 153.41 21.1725C153.41 23.0868 152.69 24.7298 151.25 26.1017C149.81 27.4736 147.785 28.16 145.176 28.161C143.651 28.161 142.3 27.9392 141.121 27.4957C139.942 27.0521 139.04 26.4761 138.416 25.7676C137.845 25.1399 137.369 24.4321 137.002 23.6666C136.765 23.1631 136.594 22.6305 136.495 22.0826C136.481 21.9735 136.509 21.8631 136.574 21.774C136.638 21.6849 136.734 21.6238 136.842 21.603Z" fill="#F7A70A"/>
<path d="M74.0655 6.89648H69.4545C69.2167 6.89648 69.0239 7.08926 69.0239 7.32705V11.938C69.0239 12.1758 69.2167 12.3686 69.4545 12.3686H74.0655C74.3033 12.3686 74.4961 12.1758 74.4961 11.938V7.32705C74.4961 7.08926 74.3033 6.89648 74.0655 6.89648Z" fill="#F7A70A"/>
<path d="M91.1875 19.6456C89.8914 23.2644 84.0809 23.142 82.6394 19.6196C82.597 19.5217 82.5198 19.4429 82.4228 19.3985C82.3257 19.3541 82.2156 19.3472 82.1138 19.3791C79.9149 20.0632 78.014 20.6536 76.9902 20.979C76.9332 20.9971 76.8806 21.0267 76.8356 21.0661C76.7907 21.1055 76.7544 21.1538 76.7291 21.208C76.7038 21.2621 76.69 21.3209 76.6886 21.3806C76.6872 21.4404 76.6982 21.4998 76.7209 21.555C78.3928 25.5871 82.5357 28.2483 87.0186 28.1677C91.5806 28.2901 95.5148 25.4403 96.7604 21.3851C96.7936 21.2755 96.7819 21.1572 96.7279 21.0562C96.6739 20.9552 96.582 20.8798 96.4724 20.8465L91.7131 19.3907C91.6095 19.3596 91.498 19.3686 91.4007 19.4158C91.3034 19.463 91.2273 19.545 91.1875 19.6456Z" fill="#F7A70A"/>
</svg>
